<?xml version="1.0" encoding="UTF-8" standalone="no"?>
<!DOCTYPE svg PUBLIC "-//W3C//DTD SVG 1.1//EN" "http://www.w3.org/Graphics/SVG/1.1/DTD/svg11.dtd">
<svg width="100%" height="100%" viewBox="0 0 50 50" version="1.1" xmlns="http://www.w3.org/2000/svg" xmlns:xlink="http://www.w3.org/1999/xlink" xml:space="preserve" xmlns:serif="http://www.serif.com/" style="fill-rule:evenodd;clip-rule:evenodd;stroke-linejoin:round;stroke-miterlimit:2;">
    <g transform="matrix(0.0485248,0,0,0.0486024,0.11592,0.180478)">
        <path d="M1028.01,210.302C1028.01,153.542 1005.43,99.106 965.228,58.97C925.029,18.835 870.506,-3.713 813.654,-3.713C637.24,-3.713 388.384,-3.713 211.969,-3.713C155.118,-3.713 100.595,18.835 60.395,58.97C20.195,99.106 -2.389,153.542 -2.389,210.302C-2.389,386.435 -2.389,634.893 -2.389,811.026C-2.389,867.787 20.195,922.222 60.395,962.358C100.595,1002.49 155.118,1025.04 211.969,1025.04C388.384,1025.04 637.24,1025.04 813.654,1025.04C870.506,1025.04 925.029,1002.49 965.228,962.358C1005.43,922.222 1028.01,867.787 1028.01,811.026L1028.01,210.302Z" style="fill:white;"/>
    </g>
    <g transform="matrix(0.0229383,-0.0229383,0.029963,0.029963,-4.92674,21.3563)">
        <path d="M115.79,598.895C102.398,598.895 89.555,594.822 80.085,587.573C70.616,580.323 65.296,570.491 65.296,560.239C65.296,560.212 65.296,560.186 65.296,560.159C65.296,549.907 70.616,540.074 80.085,532.825C89.555,525.575 102.398,521.503 115.79,521.503C304.813,521.503 959.855,521.503 959.855,521.503C959.855,521.503 740.104,353.272 624.151,264.503C612.461,255.553 608.964,242.094 615.291,230.401C621.617,218.707 636.522,211.083 653.055,211.083C666.081,211.083 675.033,211.083 675.033,211.083L1131.06,560.199C1131.06,560.199 832.001,789.147 718.245,876.234C690.577,897.415 653.05,909.315 613.922,909.315L613.909,909.315C603.934,909.315 594.942,904.715 591.125,897.66C587.308,890.605 589.418,882.485 596.471,877.085C700.227,797.654 959.855,598.895 959.855,598.895L115.79,598.895Z"/>
    </g>
</svg>
