<?xml version="1.0" encoding="UTF-8" standalone="no"?>
<!DOCTYPE svg PUBLIC "-//W3C//DTD SVG 1.1//EN" "http://www.w3.org/Graphics/SVG/1.1/DTD/svg11.dtd">
<svg width="100%" height="100%" viewBox="0 0 729 694" version="1.1" xmlns="http://www.w3.org/2000/svg" xmlns:xlink="http://www.w3.org/1999/xlink" xml:space="preserve" xmlns:serif="http://www.serif.com/" style="fill:white;clip-rule:evenodd;stroke-linejoin:round;stroke-miterlimit:2;">
    <g transform="matrix(1.00001,0,0,1,-20.289,-2.01197)">
        <path d="M377.357,23.664C378.346,20.617 381.185,18.554 384.389,18.554C387.592,18.554 390.431,20.617 391.42,23.664C411.946,86.887 470.34,266.751 470.34,266.751C470.34,266.751 659.339,266.751 725.747,266.751C728.949,266.751 731.787,268.813 732.777,271.858C733.768,274.904 732.685,278.24 730.095,280.124C676.374,319.186 523.461,430.373 523.461,430.373C523.461,430.373 581.863,610.259 602.385,673.472C603.374,676.518 602.289,679.855 599.697,681.737C597.105,683.619 593.596,683.618 591.006,681.734C537.27,642.661 384.389,531.497 384.389,531.497C384.389,531.497 231.508,642.661 177.772,681.734C175.181,683.618 171.672,683.619 169.081,681.737C166.489,679.855 165.404,676.518 166.393,673.472C186.915,610.259 245.316,430.373 245.316,430.373C245.316,430.373 92.404,319.186 38.683,280.124C36.093,278.24 35.01,274.904 36,271.858C36.99,268.813 39.829,266.751 43.031,266.751C109.439,266.751 298.437,266.751 298.437,266.751C298.437,266.751 356.831,86.887 377.357,23.664Z"/>
    </g>
</svg>
